<?xml version="1.0" encoding="utf-8"?>
<!-- Generator: Adobe Illustrator 16.0.0, SVG Export Plug-In . SVG Version: 6.00 Build 0)  -->
<!DOCTYPE svg PUBLIC "-//W3C//DTD SVG 1.1//EN" "http://www.w3.org/Graphics/SVG/1.1/DTD/svg11.dtd">
<svg version="1.1"
	 id="svg2" sodipodi:docname="barrel_coloured.svg" inkscape:version="0.48.2 r9819" xmlns:inkscape="http://www.inkscape.org/namespaces/inkscape" xmlns:rdf="http://www.w3.org/1999/02/22-rdf-syntax-ns#" xmlns:sodipodi="http://sodipodi.sourceforge.net/DTD/sodipodi-0.dtd" xmlns:cc="http://creativecommons.org/ns#" xmlns:dc="http://purl.org/dc/elements/1.1/" xmlns:ns1="http://sozi.baierouge.fr" xmlns:svg="http://www.w3.org/2000/svg"
	 xmlns="http://www.w3.org/2000/svg" xmlns:xlink="http://www.w3.org/1999/xlink" x="0px" y="0px" width="32px" height="32px"
	 viewBox="0 0 32 32" enable-background="new 0 0 32 32" xml:space="preserve">
<sodipodi:namedview  inkscape:document-units="px" inkscape:pageopacity="0.0" inkscape:window-height="712" fit-margin-bottom="0" inkscape:current-layer="layer1" inkscape:window-width="1024" inkscape:window-y="-4" inkscape:pageshadow="2" fit-margin-right="0" inkscape:window-maximized="1" inkscape:window-x="-4" inkscape:cy="317.84908" inkscape:cx="209.48712" borderopacity="1.0" showgrid="false" inkscape:zoom="1.290093" fit-margin-top="0" pagecolor="#ffffff" fit-margin-left="0" bordercolor="#666666" id="base">
	</sodipodi:namedview>
<g id="layer1" transform="translate(169.53 62.246)" inkscape:groupmode="layer" inkscape:label="Calque 1">
	<path id="rect3022" sodipodi:nodetypes="ccccccccccccccccc" inkscape:connector-curvature="0" fill="#CC9933" d="M-161.422-60.879
		c2.871-1.463,14.142-2.091,16,0.651c1.685,4.253,2.487,8.226,2.417,12.532c0.26,0.26,0.418,0.742-0.063,1.563
		c-0.153,2.416-0.498,4.87-1.142,7.541c0.309,0.071,0.229,0.691-0.314,1.271c-0.461,1.75-1.018,3.24-1.656,5.008
		c-3.574,2.83-12.25,2.283-15.386-0.686c-0.242-1.7-0.748-3.088-1.183-4.717c-0.46-0.488-0.498-0.963-0.152-0.978
		c-0.658-2.481-1.284-4.671-1.243-8.092c-0.253-0.489-0.27-0.661-0.006-0.77c0.041-2.073,0.238-4.031,0.89-6.842
		c-0.266-0.565-0.105-0.987,0.183-0.993c0.358-1.502,0.75-2.588,1.327-4.339c-0.155-0.334-0.101-0.614,0.152-0.622
		C-161.518-60.594-161.508-60.619-161.422-60.879L-161.422-60.879z"/>
	<path id="rect3821" sodipodi:nodetypes="ccssccssc" inkscape:connector-curvature="0" fill="#654C19" d="M-163.169-55.358
		c3.732,3.172,17.61,1.997,19.195-0.307c0.182,0,0.328,0.146,0.328,0.328v0.865c0,0.182-0.146,0.328-0.328,0.328
		c-1.995,1.587-13.204,2.788-19.042,0c-0.182,0-0.328-0.146-0.328-0.328v-0.865C-163.343-55.518-163.351-55.358-163.169-55.358
		L-163.169-55.358z"/>
	<path id="rect3821-4" sodipodi:nodetypes="cccccssc" inkscape:connector-curvature="0" fill="#654C19" d="M-164.079-47.463
		c4.13,3.171,17.786,3.192,21.096,0.055c0.321,0.059,0.287,0.009,0.287,0.271c0,0.182-0.014,0.634-0.215,0.634
		c-3.438,2.637-14.937,3.476-21.071,0.253c-0.201,0-0.259-0.059-0.291-0.238l-0.145-0.81
		C-164.449-47.477-164.28-47.463-164.079-47.463L-164.079-47.463z"/>
	<path id="rect3821-0" sodipodi:nodetypes="ccccccc" inkscape:connector-curvature="0" fill="#654C19" d="M-163.06-38.703
		c3.008,2.736,15.8,3.264,18.978,0.127c0.182,0,0.219-0.144,0.219,0.038c-0.011,0.335-0.182,0.526-0.418,1.157
		c-2.863,1.984-14.489,2.823-18.806-0.762c-0.164-0.194-0.175-0.021-0.143-0.408C-163.215-38.732-163.242-38.703-163.06-38.703
		L-163.06-38.703z"/>
	<path id="rect3821-9" sodipodi:nodetypes="ccccc" inkscape:connector-curvature="0" fill="#654C19" d="M-160.925-33.008
		c4.91,2.352,10.312,2.305,14.254,0.512c0.453-0.59,0.951-0.194-0.18,0.753c-1.931,1.136-8.327,2.688-14.172-0.681
		C-161.791-33.169-161.798-33.545-160.925-33.008L-160.925-33.008z"/>
	<path id="rect3856" sodipodi:nodetypes="ccccc" inkscape:connector-curvature="0" fill="#654C19" d="M-161.027-59.865
		c5.033,2.024,13.44,0.913,15.1-0.398c0.432-0.262,0.586,0.022,0.397,0.833c-3.247,1.593-11.049,2.613-15.823,0
		C-162.375-60.515-161.541-60.594-161.027-59.865L-161.027-59.865z"/>
	<path id="rect3856-4" sodipodi:nodetypes="ccccc" inkscape:connector-curvature="0" fill="#654C19" d="M-160.877-60.326
		c3.295-1.155,11.303-1.638,14.593-0.072c0.432-0.1,0.477,0.304,0.289-0.507c-3.79-1.376-10.18-1.781-15.027-0.073
		C-161.755-60.437-161.102-60.357-160.877-60.326L-160.877-60.326z"/>
	<path id="path3257" inkscape:connector-curvature="0" d="M-154.305-30.277c-0.478-0.026-0.933-0.068-1.011-0.094
		c-0.079-0.024-0.416-0.07-0.75-0.102c-0.96-0.09-1.262-0.161-2.459-0.579c-1.569-0.548-2.145-0.858-2.747-1.484
		c-0.469-0.487-0.608-0.778-0.556-1.163c0.032-0.23,0.01-0.38-0.088-0.604c-0.151-0.344-0.769-2.348-0.873-2.833
		c-0.04-0.187-0.165-0.45-0.291-0.613c-0.318-0.413-0.494-1.224-0.292-1.348c0.079-0.049,0.072-0.101-0.132-1.085
		c-0.211-1.021-0.666-4.885-0.667-5.677c0-0.212-0.039-0.401-0.093-0.462c-0.083-0.094-0.238-0.862-0.238-1.182
		c0-0.07,0.066-0.212,0.148-0.315c0.13-0.166,0.15-0.273,0.16-0.884c0.017-1.046,0.08-2.04,0.155-2.446
		c0.037-0.2,0.095-0.557,0.129-0.793c0.135-0.934,0.277-1.698,0.367-1.972c0.083-0.25,0.082-0.312-0.003-0.476
		c-0.192-0.371-0.086-1.056,0.198-1.287c0.104-0.084,0.187-0.243,0.225-0.43c0.197-0.988,0.875-3.057,1.068-3.261
		c0.03-0.032,0.039-0.199,0.018-0.371c-0.057-0.485,0.068-0.768,0.444-0.999c0.191-0.118,0.328-0.253,0.34-0.336
		c0.027-0.182,0.503-0.32,1.976-0.575c0.603-0.104,1.153-0.218,1.222-0.253c0.204-0.105,0.679-0.152,2.702-0.27
		c2.036-0.118,2.807-0.106,5.186,0.081c1.258,0.098,1.965,0.216,3.287,0.546c0.231,0.058,0.518,0.187,0.652,0.294
		c0.133,0.105,0.274,0.191,0.316,0.191c0.104,0,0.601,0.539,0.733,0.795c0.073,0.142,0.096,0.286,0.067,0.436
		c-0.027,0.147-0.008,0.287,0.059,0.405c0.178,0.323,0.83,2.401,0.83,2.648c0,0.196,0.254,0.813,0.369,0.897
		c0.15,0.109,0.31,0.871,0.219,1.041c-0.084,0.157-0.033,0.575,0.1,0.836c0.05,0.096,0.139,0.487,0.198,0.868
		c0.06,0.382,0.138,0.843,0.175,1.024c0.154,0.758,0.37,3.68,0.291,3.936c-0.018,0.058,0.043,0.215,0.135,0.35
		c0.226,0.333,0.238,0.988,0.023,1.261c-0.127,0.161-0.145,0.278-0.163,1.05c-0.012,0.479-0.096,1.371-0.188,1.991
		c-0.093,0.618-0.199,1.347-0.237,1.618c-0.101,0.729-0.257,1.572-0.359,1.949c-0.19,0.697-0.227,0.998-0.151,1.244
		c0.104,0.339-0.09,1.042-0.356,1.291c-0.106,0.1-0.218,0.283-0.248,0.408c-0.21,0.883-0.83,2.905-0.97,3.168
		c-0.049,0.09-0.137,0.299-0.195,0.462c-0.289,0.805-0.351,0.944-0.509,1.167c-0.259,0.363-0.833,0.803-1.203,0.92
		c-0.182,0.059-0.509,0.176-0.728,0.26c-0.518,0.201-1.529,0.453-2.477,0.615C-151.377-30.264-153.012-30.204-154.305-30.277
		L-154.305-30.277z M-150.728-30.711c0.327-0.054,0.684-0.125,0.793-0.156c0.108-0.032,0.317-0.078,0.462-0.102
		c0.537-0.09,1.304-0.304,1.65-0.463c0.195-0.09,0.396-0.162,0.443-0.162c0.237-0.002,1.177-0.748,1.177-0.936
		c0-0.066-0.021-0.122-0.046-0.122s-0.246,0.134-0.49,0.298s-0.543,0.316-0.664,0.338c-0.121,0.023-0.283,0.08-0.359,0.127
		c-0.164,0.103-0.89,0.315-1.446,0.426c-0.218,0.043-0.515,0.104-0.661,0.135c-1.664,0.359-4.428,0.355-6.086-0.01
		c-0.477-0.104-0.927-0.19-0.999-0.19c-0.073,0-0.239-0.044-0.37-0.099s-0.348-0.1-0.484-0.1c-0.478,0-1.917-0.527-2.655-0.973
		c-0.661-0.4-0.868-0.484-0.868-0.352c0,0.033,0.131,0.185,0.291,0.334c0.664,0.623,0.923,0.752,3.045,1.521
		C-156.467-30.643-152.659-30.389-150.728-30.711L-150.728-30.711z M-152.735-31.892c0.022-0.326,0.073-0.906,0.111-1.288
		c0.039-0.382,0.086-1.058,0.102-1.503l0.031-0.809h-0.918c-1.082,0-1.038-0.041-0.921,0.861c0.039,0.307,0.09,1.158,0.113,1.892
		l0.042,1.333l0.502,0.043c0.276,0.023,0.531,0.053,0.567,0.066c0.037,0.014,0.125,0.019,0.198,0.012
		C-152.79-31.297-152.772-31.361-152.735-31.892L-152.735-31.892z M-151.096-31.437c0.155-0.168,0.286-0.763,0.531-2.404
		c0.072-0.49,0.158-1.049,0.188-1.24c0.036-0.225,0.032-0.365-0.01-0.391c-0.116-0.072-1.722-0.015-1.817,0.064
		c-0.061,0.051-0.076,0.153-0.05,0.321c0.021,0.136,0.007,0.688-0.032,1.226c-0.134,1.796-0.17,2.432-0.143,2.482
		C-152.393-31.308-151.164-31.363-151.096-31.437L-151.096-31.437z M-154.562-32.488c-0.001-0.58-0.019-1.486-0.038-2.014
		l-0.035-0.957l-0.59-0.045c-0.324-0.025-0.716-0.064-0.871-0.088l-0.281-0.041v0.413c0,0.228,0.029,0.578,0.065,0.78
		c0.036,0.201,0.111,0.68,0.167,1.061c0.206,1.403,0.254,1.686,0.298,1.738c0.048,0.056,1.021,0.236,1.188,0.219
		C-154.575-31.43-154.56-31.596-154.562-32.488L-154.562-32.488z M-149.935-31.574c0.313-0.046,0.403-0.107,0.447-0.304
		c0.018-0.081,0.081-0.325,0.142-0.543c0.208-0.76,0.664-3.261,0.604-3.321c-0.016-0.015-0.181,0.005-0.366,0.045
		s-0.448,0.072-0.583,0.073c-0.134,0.001-0.278,0.022-0.319,0.05c-0.042,0.027-0.096,0.286-0.121,0.577
		c-0.024,0.29-0.074,0.701-0.109,0.912s-0.121,0.761-0.188,1.222s-0.155,0.922-0.194,1.025c-0.13,0.339-0.1,0.397,0.176,0.348
		C-150.311-31.516-150.081-31.553-149.935-31.574z M-156.217-31.718c0.034-0.055,0.014-0.196-0.2-1.396
		c-0.165-0.927-0.239-1.525-0.252-2.048l-0.013-0.496l-0.359-0.05c-0.197-0.027-0.573-0.101-0.836-0.161
		c-0.262-0.062-0.495-0.094-0.516-0.073c-0.059,0.06,0.075,0.829,0.221,1.275c0.116,0.353,0.317,1.165,0.544,2.197
		c0.094,0.429,0.27,0.579,0.74,0.639c0.192,0.024,0.393,0.071,0.447,0.105C-156.319-31.647-156.262-31.645-156.217-31.718z
		 M-148.548-31.889c0.218-0.062,0.461-0.175,0.541-0.249c0.159-0.147,0.639-1.53,0.877-2.529c0.078-0.327,0.188-0.769,0.242-0.981
		c0.063-0.243,0.078-0.411,0.039-0.45s-0.208-0.015-0.451,0.067c-0.215,0.07-0.545,0.149-0.736,0.175
		c-0.191,0.024-0.359,0.067-0.375,0.093c-0.017,0.025-0.076,0.387-0.135,0.803c-0.057,0.416-0.146,0.92-0.198,1.119
		c-0.052,0.2-0.129,0.602-0.171,0.893s-0.119,0.655-0.172,0.811c-0.097,0.287-0.07,0.443,0.066,0.393
		C-148.978-31.763-148.766-31.826-148.548-31.889L-148.548-31.889z M-157.879-32.074c0.015-0.045-0.009-0.172-0.054-0.28
		c-0.045-0.109-0.104-0.347-0.13-0.528c-0.026-0.182-0.084-0.405-0.129-0.496c-0.045-0.091-0.117-0.395-0.162-0.676
		c-0.044-0.281-0.137-0.674-0.208-0.874c-0.07-0.199-0.127-0.509-0.127-0.687c0-0.179-0.037-0.354-0.083-0.392
		s-0.246-0.114-0.446-0.169c-0.2-0.056-0.504-0.154-0.675-0.22c-0.214-0.081-0.333-0.097-0.38-0.05
		c-0.087,0.087,0.25,1.433,0.488,1.943c0.093,0.2,0.169,0.414,0.169,0.475c0,0.062,0.072,0.284,0.16,0.496
		c0.087,0.211,0.214,0.547,0.281,0.747c0.1,0.296,0.166,0.384,0.354,0.473C-158.113-31.976-157.927-31.93-157.879-32.074
		L-157.879-32.074z M-159.273-34.75c-0.119-0.391-0.244-0.777-0.278-0.861c-0.094-0.229-0.077-0.356,0.045-0.332
		c0.073,0.015,0.181,0.255,0.338,0.748c0.284,0.896,0.33,1.156,0.203,1.156C-159.025-34.039-159.132-34.287-159.273-34.75
		L-159.273-34.75z M-147.273-32.314c0.135-0.068,0.296-0.182,0.356-0.249c0.178-0.195,0.887-2.034,1.073-2.783
		c0.093-0.374,0.231-0.801,0.308-0.949c0.188-0.37,0.091-0.448-0.285-0.228c-0.162,0.095-0.354,0.172-0.428,0.172
		c-0.203,0-0.262,0.113-0.375,0.727c-0.167,0.906-0.533,2.241-0.758,2.766c-0.197,0.461-0.252,0.67-0.172,0.67
		C-147.534-32.189-147.408-32.246-147.273-32.314L-147.273-32.314z M-146.356-34.816c0.043-0.314,0.19-0.742,0.256-0.742
		c0.042,0-0.015,0.382-0.114,0.775C-146.311-34.403-146.409-34.426-146.356-34.816z M-159.451-32.516
		c0.021-0.035-0.032-0.25-0.119-0.479c-0.086-0.229-0.225-0.64-0.307-0.912s-0.205-0.606-0.273-0.741s-0.125-0.312-0.125-0.396
		c0-0.082-0.075-0.359-0.165-0.613s-0.164-0.544-0.164-0.645c0-0.1-0.056-0.236-0.124-0.305c-0.127-0.127-0.778-0.318-0.847-0.249
		c-0.057,0.057,0.111,0.638,0.253,0.876c0.067,0.113,0.123,0.271,0.123,0.352s0.074,0.367,0.165,0.638s0.165,0.548,0.165,0.614
		c0,0.149,0.174,0.578,0.255,0.629c0.032,0.02,0.077,0.18,0.101,0.354c0.038,0.282,0.077,0.345,0.355,0.554
		C-159.659-32.466-159.521-32.402-159.451-32.516L-159.451-32.516z M-160.328-33.707c-0.146-0.197-0.19-0.398-0.088-0.398
		c0.067,0,0.309,0.516,0.263,0.561C-160.17-33.527-160.249-33.6-160.328-33.707z M-160.627-34.348
		c-0.024-0.024-0.043-0.121-0.042-0.215c0.002-0.164,0.005-0.166,0.099-0.043C-160.421-34.408-160.469-34.19-160.627-34.348z
		 M-160.824-35.141c-0.024-0.024-0.044-0.074-0.044-0.112c0-0.042,0.031-0.038,0.078,0.01c0.043,0.043,0.063,0.094,0.044,0.112
		C-160.765-35.111-160.801-35.116-160.824-35.141z M-160.961-35.598c-0.022-0.057-0.04-0.168-0.04-0.244
		c0-0.182,0.108-0.074,0.167,0.167C-160.785-35.48-160.891-35.416-160.961-35.598z M-146.001-33.248
		c0.304-0.463,1.396-3.643,1.288-3.75c-0.024-0.023-0.122,0-0.217,0.053c-0.146,0.084-0.218,0.251-0.481,1.122
		c-0.398,1.315-0.562,1.787-0.789,2.278c-0.102,0.219-0.206,0.467-0.232,0.552C-146.521-32.704-146.254-32.861-146.001-33.248z
		 M-160.774-33.305c0.033-0.055-0.215-0.73-0.502-1.367c-0.066-0.147-0.121-0.341-0.122-0.43c0-0.088-0.085-0.398-0.188-0.688
		c-0.104-0.291-0.225-0.685-0.271-0.876c-0.082-0.344-0.304-0.61-0.507-0.61c-0.13,0-0.112,0.177,0.075,0.727
		c0.091,0.267,0.165,0.542,0.165,0.612c0,0.151,0.49,1.633,0.629,1.901c0.053,0.104,0.097,0.261,0.097,0.351
		C-161.397-33.455-160.878-33.138-160.774-33.305L-160.774-33.305z M-150.387-35.855c0.043-0.014,0.088-0.095,0.1-0.179
		c0.027-0.196,0.147-0.198,0.175-0.004c0.021,0.143,0.04,0.147,0.495,0.109c0.612-0.052,1.773-0.275,1.857-0.358
		c0.035-0.035,0.154-0.065,0.266-0.066c0.111,0,0.543-0.121,0.961-0.27c0.418-0.147,0.834-0.285,0.926-0.305
		c0.09-0.02,0.209-0.073,0.264-0.119c0.055-0.045,0.248-0.16,0.43-0.254c0.455-0.236,0.663-0.428,0.785-0.727
		c0.176-0.426-0.011-0.516-0.305-0.146c-0.188,0.234-1.023,0.699-1.257,0.699c-0.072,0-0.388,0.115-0.702,0.257
		s-0.779,0.306-1.033,0.366c-0.254,0.059-0.642,0.152-0.861,0.209c-0.221,0.055-0.562,0.1-0.76,0.098s-0.598,0.023-0.889,0.056
		c-1.463,0.163-2.165,0.204-2.254,0.13c-0.053-0.043-0.166-0.055-0.271-0.028c-0.449,0.112-3.492-0.024-4.345-0.195
		c-0.254-0.052-0.745-0.124-1.09-0.162c-0.786-0.087-1.34-0.229-2.676-0.686c-1.314-0.45-1.438-0.503-1.944-0.839
		c-0.631-0.42-0.77-0.244-0.257,0.326c0.23,0.257,1.202,0.799,1.43,0.799c0.052,0,0.574,0.161,1.16,0.358
		c1.644,0.554,2.711,0.763,5.029,0.984C-154.912-35.778-150.466-35.828-150.387-35.855L-150.387-35.855z M-152.441-37.343
		c0.041-0.382,0.11-1.541,0.153-2.577c0.043-1.035,0.1-2.368,0.125-2.962c0.03-0.7,0.023-1.095-0.02-1.121
		c-0.035-0.022-0.574-0.048-1.196-0.058l-1.13-0.017l-0.036,0.48c-0.02,0.265-0.01,0.622,0.023,0.797
		c0.038,0.205,0.035,0.36-0.009,0.444c-0.038,0.069-0.053,0.152-0.033,0.184c0.03,0.048,0.08,1.769,0.136,4.697
		c0.008,0.418,0.019,0.783,0.024,0.811c0.005,0.028,0.432,0.043,0.948,0.033l0.939-0.019L-152.441-37.343z M-150.6-36.682h0.34
		l0.116-0.917c0.22-1.739,0.445-6.562,0.311-6.646c-0.03-0.019-0.214-0.006-0.408,0.029s-0.637,0.072-0.981,0.083l-0.629,0.02
		l-0.005,0.329c-0.021,1.165-0.108,3.507-0.159,4.26c-0.033,0.491-0.08,1.351-0.105,1.91l-0.047,1.018l0.615-0.043
		C-151.216-36.662-150.787-36.682-150.6-36.682L-150.6-36.682z M-150.486-43.662c0.028-0.145,0.22-0.165,0.22-0.023
		c0,0.054-0.055,0.108-0.121,0.121C-150.475-43.547-150.503-43.574-150.486-43.662z M-154.714-37.227
		c0.006-0.3,0.008-0.604,0.003-0.677s-0.026-0.965-0.047-1.982c-0.021-1.018-0.051-2.385-0.066-3.039l-0.027-1.188l-0.812-0.04
		c-0.447-0.022-0.921-0.062-1.053-0.09c-0.214-0.045-0.254-0.031-0.353,0.119c-0.062,0.094-0.092,0.202-0.067,0.241
		c0.046,0.075,0.075,0.542,0.164,2.677c0.057,1.373,0.136,2.364,0.268,3.355c0.042,0.32,0.062,0.643,0.042,0.717
		c-0.063,0.242,0.018,0.32,0.343,0.328c0.168,0.004,0.396,0.031,0.505,0.059c0.109,0.027,0.399,0.054,0.644,0.059l0.446,0.008
		L-154.714-37.227L-154.714-37.227z M-155.551-40.051c-0.054-0.088,0.018-0.199,0.129-0.199c0.097,0,0.183,0.162,0.12,0.225
		C-155.364-39.963-155.506-39.978-155.551-40.051z M-156.21-40.246c-0.073-0.119,0.033-0.344,0.152-0.32
		c0.147,0.028,0.148,0.341,0,0.369C-156.117-40.185-156.186-40.208-156.21-40.246L-156.21-40.246z M-148.813-36.882
		c0.461-0.074,0.578-0.144,0.518-0.302c-0.018-0.047,0-0.243,0.04-0.436c0.04-0.193,0.117-0.976,0.173-1.738
		c0.055-0.764,0.127-1.773,0.162-2.246c0.076-1.064,0.084-2.789,0.013-2.833c-0.028-0.019-0.185-0.003-0.347,0.033
		s-0.512,0.087-0.778,0.112l-0.485,0.045l-0.024,1.816c-0.013,0.999-0.054,2.113-0.09,2.478c-0.036,0.363-0.1,1.047-0.142,1.519
		c-0.041,0.473-0.102,1.02-0.135,1.214c-0.031,0.195-0.042,0.381-0.021,0.413C-149.891-36.742-149.53-36.767-148.813-36.882
		L-148.813-36.882z M-156.945-37.003c0.019-0.03,0.006-0.231-0.028-0.446c-0.097-0.6-0.268-2.767-0.267-3.395
		c0-0.729-0.193-3.389-0.251-3.45c-0.024-0.026-0.282-0.062-0.572-0.079c-0.29-0.017-0.685-0.064-0.878-0.107
		c-0.193-0.042-0.366-0.061-0.385-0.043c-0.09,0.09-0.004,3.427,0.104,4.043c0.039,0.218,0.07,0.514,0.07,0.656
		c0,0.143,0.045,0.439,0.1,0.66c0.055,0.221,0.122,0.758,0.148,1.193l0.049,0.793l0.297,0.047
		C-157.554-36.971-156.991-36.927-156.945-37.003z M-158.002-40.321c-0.059-0.075-0.356-1.146-0.356-1.28
		c0-0.02,0.044-0.035,0.097-0.035c0.128,0,0.381,0.829,0.353,1.16C-157.925-40.28-157.945-40.248-158.002-40.321L-158.002-40.321z
		 M-158.654-41.48c0.025-0.286,0.058-0.533,0.073-0.549c0.068-0.072,0.169,0.13,0.12,0.239c-0.03,0.065-0.056,0.267-0.058,0.444
		c-0.002,0.209-0.036,0.336-0.092,0.354C-158.683-40.967-158.691-41.062-158.654-41.48L-158.654-41.48z M-158.052-42.937
		c-0.079-0.08-0.043-0.219,0.057-0.219c0.055,0,0.099,0.043,0.099,0.096C-157.896-42.951-157.99-42.877-158.052-42.937z
		 M-158.195-43.424c-0.055-0.174,0.064-0.323,0.172-0.215c0.088,0.088,0.056,0.297-0.05,0.332
		C-158.114-43.293-158.17-43.346-158.195-43.424z M-147.454-37.142c0.256-0.071,0.622-0.2,0.814-0.288l0.35-0.16l0.047-0.455
		c0.025-0.25,0.059-0.543,0.073-0.652c0.028-0.202,0.093-1.082,0.267-3.6c0.054-0.781,0.11-1.555,0.127-1.719
		c0.043-0.461-0.041-0.822-0.197-0.842c-0.072-0.01-0.457,0.066-0.857,0.168l-0.727,0.185l-0.015,0.922
		c-0.017,1.04-0.192,4.423-0.28,5.39c-0.031,0.35-0.105,0.73-0.164,0.844c-0.105,0.204-0.092,0.337,0.034,0.337
		C-147.948-37.013-147.71-37.07-147.454-37.142L-147.454-37.142z M-147.301-40.126c0.023-0.113,0.041-0.262,0.041-0.33
		c0-0.069,0.047-0.124,0.106-0.124c0.069,0,0.093,0.036,0.065,0.104c-0.021,0.058-0.039,0.206-0.039,0.331
		c0,0.164-0.029,0.225-0.107,0.225C-147.321-39.92-147.335-39.963-147.301-40.126z M-147.193-40.855
		c0.001-0.171,0.081-0.385,0.144-0.385c0.092,0,0.035,0.414-0.062,0.445C-147.157-40.779-147.194-40.807-147.193-40.855z
		 M-159.199-37.924c-0.013-0.316-0.051-0.694-0.083-0.84c-0.05-0.225-0.134-0.926-0.292-2.443c-0.019-0.182-0.045-1.015-0.059-1.85
		l-0.025-1.52l-0.622-0.136c-0.342-0.075-0.723-0.171-0.847-0.215c-0.139-0.05-0.252-0.056-0.298-0.019
		c-0.082,0.068-0.089,1.59-0.01,2.162c0.033,0.239,0.023,0.354-0.033,0.389c-0.121,0.075-0.323-0.231-0.325-0.493
		c0-0.124-0.029-0.317-0.063-0.429c-0.089-0.291-0.288-1.692-0.246-1.734c0.081-0.08,0.176,0.068,0.176,0.275
		c0,0.353,0.115,0.332,0.165-0.029c0.048-0.35,0.015-0.466-0.133-0.466c-0.092,0-0.392-0.12-0.806-0.321
		c-0.311-0.15-0.371-0.057-0.312,0.488c0.031,0.292,0.089,0.486,0.167,0.564c0.102,0.102,0.124,0.261,0.145,1.032
		c0.021,0.759,0.218,2.325,0.402,3.19c0.019,0.092,0.099,0.522,0.178,0.959c0.079,0.436,0.154,0.857,0.169,0.936
		c0.032,0.174,0.722,0.542,0.824,0.439c0.064-0.062-0.15-1.681-0.36-2.729c-0.146-0.726-0.167-1.487-0.042-1.487
		c0.126,0,0.175,0.183,0.268,0.992c0.042,0.363,0.166,1.105,0.276,1.65s0.222,1.096,0.248,1.223
		c0.098,0.484,0.238,0.648,0.648,0.762c0.208,0.057,0.468,0.143,0.577,0.19C-159.201-37.244-159.173-37.291-159.199-37.924
		L-159.199-37.924z M-159.971-38.721c-0.021-0.034-0.038-0.133-0.036-0.218c0.004-0.197-0.168-1.39-0.295-2.038
		c-0.054-0.272-0.144-0.763-0.202-1.09c-0.127-0.722-0.245-1.156-0.314-1.156c-0.102,0-0.057,0.565,0.18,2.246
		c0.049,0.346,0.091,0.672,0.094,0.727c0.009,0.156,0.068,0.748,0.086,0.871c0.009,0.062-0.013,0.119-0.049,0.126
		c-0.064,0.013-0.146-0.288-0.19-0.7c-0.012-0.108-0.04-0.257-0.062-0.33c-0.178-0.576-0.375-3.187-0.268-3.551
		c0.054-0.184,0.223-0.139,0.223,0.059c0,0.097,0.04,0.208,0.088,0.248c0.148,0.123,0.56,1.992,0.794,3.607
		c0.055,0.382,0.102,0.738,0.104,0.793s0.011,0.171,0.02,0.258C-159.779-38.708-159.9-38.605-159.971-38.721z M-161.81-39.342
		c-0.042-0.115,0.016-0.256,0.088-0.211c0.078,0.049,0.079,0.294,0.001,0.294C-161.753-39.259-161.794-39.296-161.81-39.342z
		 M-161.89-39.738c-0.014-0.045-0.044-0.238-0.066-0.429c-0.033-0.286-0.022-0.347,0.061-0.347c0.066,0,0.102,0.062,0.102,0.182
		c0,0.1,0.019,0.293,0.042,0.43c0.028,0.167,0.016,0.247-0.036,0.247C-161.83-39.655-161.876-39.692-161.89-39.738L-161.89-39.738z
		 M-162.288-41.818c-0.079-0.197-0.126-1.734-0.054-1.734c0.051,0,0.221,1.369,0.218,1.768
		C-162.125-41.663-162.235-41.685-162.288-41.818z M-159.907-42.05c-0.014-0.046-0.06-0.32-0.102-0.611
		c-0.042-0.29-0.103-0.618-0.135-0.727s-0.106-0.358-0.165-0.554c-0.076-0.254-0.086-0.377-0.036-0.427
		c0.131-0.132,0.244,0.104,0.356,0.749c0.13,0.744,0.213,1.652,0.15,1.652C-159.863-41.967-159.894-42.004-159.907-42.05
		L-159.907-42.05z M-162.75-44.937c-0.052-0.084,0.03-0.398,0.104-0.398c0.033,0,0.059,0.104,0.059,0.23
		C-162.587-44.885-162.667-44.803-162.75-44.937z M-145.075-38.039c0.216-0.111,0.22-0.121,0.125-0.297
		c-0.049-0.092-0.029-0.305,0.07-0.772c0.31-1.454,0.765-6.147,0.61-6.302c-0.05-0.051-0.688,0.162-1.069,0.355
		c-0.156,0.079-0.16,0.107-0.178,0.94c-0.01,0.473-0.051,1.261-0.09,1.751s-0.082,1.159-0.095,1.486
		c-0.021,0.501-0.154,1.803-0.284,2.758c-0.059,0.427-0.01,0.467,0.38,0.312C-145.419-37.88-145.18-37.984-145.075-38.039
		L-145.075-38.039z M-145.11-42.424c-0.024-0.041-0.029-0.125-0.011-0.188c0.019-0.064,0.053-0.441,0.075-0.84
		c0.043-0.753,0.064-0.855,0.168-0.793c0.082,0.051,0.078,0.629-0.01,1.265C-144.958-42.461-145.027-42.289-145.11-42.424
		L-145.11-42.424z M-144.216-38.932c0.154-0.443,0.598-2.732,0.779-4.026c0.109-0.784,0.34-2.863,0.338-3.056
		c0-0.087-0.15-0.053-0.28,0.064c-0.069,0.062-0.229,0.174-0.356,0.248l-0.23,0.135l-0.029,0.792
		c-0.051,1.363-0.143,2.751-0.223,3.369c-0.195,1.508-0.312,2.203-0.445,2.625c-0.053,0.172-0.078,0.344-0.054,0.382
		C-144.632-38.262-144.342-38.569-144.216-38.932z M-143.751-43.478c0.027-0.082,0.124-0.102,0.124-0.024
		c0,0.026-0.034,0.061-0.075,0.074C-143.742-43.415-143.764-43.437-143.751-43.478z M-162.322-38.746
		c0-0.119-0.058-0.527-0.128-0.908c-0.11-0.596-0.287-1.678-0.534-3.271c-0.071-0.461-0.247-1.949-0.291-2.477
		c-0.025-0.299-0.064-0.39-0.216-0.513c-0.247-0.199-0.388-0.167-0.368,0.085c0.008,0.107,0.045,0.627,0.082,1.154
		c0.061,0.882,0.162,1.744,0.332,2.841c0.226,1.454,0.283,1.793,0.368,2.167c0.052,0.23,0.095,0.504,0.095,0.609
		c0,0.147,0.057,0.23,0.247,0.359C-162.407-38.475-162.322-38.485-162.322-38.746L-162.322-38.746z M-161.761-43.949
		c-0.022-0.036-0.054-0.066-0.07-0.066s-0.029,0.03-0.029,0.066c0,0.037,0.032,0.066,0.07,0.066
		C-161.752-43.883-161.738-43.912-161.761-43.949z M-150.86-44.475c1.586-0.107,2.975-0.264,3.566-0.402
		c0.291-0.068,0.797-0.186,1.123-0.263c1.271-0.298,2.443-0.825,2.971-1.335c0.324-0.315,0.366-0.385,0.366-0.621
		c0-0.146-0.019-0.285-0.042-0.308s-0.224,0.124-0.445,0.327c-0.404,0.369-1.121,0.758-1.792,0.974
		c-0.825,0.265-1.87,0.561-2.081,0.588c-0.127,0.017-0.678,0.105-1.223,0.195c-1.873,0.314-2.027,0.325-4.485,0.322
		c-2.103-0.004-2.728-0.03-3.937-0.172c-0.164-0.019-0.55-0.062-0.859-0.098c-1.21-0.137-1.834-0.237-1.923-0.31
		c-0.05-0.042-0.344-0.127-0.652-0.189c-0.308-0.062-0.635-0.142-0.727-0.177c-0.092-0.035-0.268-0.077-0.392-0.093
		c-0.124-0.016-0.258-0.055-0.297-0.086s-0.28-0.119-0.534-0.193c-1.015-0.297-1.534-0.579-1.742-0.945
		c-0.116-0.205-0.317-0.269-0.244-0.078c0.023,0.062,0.09,0.256,0.147,0.431c0.121,0.368,0.387,0.617,0.861,0.804
		c0.174,0.068,0.662,0.27,1.083,0.447c0.836,0.352,1.714,0.599,2.537,0.715c0.291,0.041,0.663,0.107,0.826,0.148
		c0.163,0.04,0.505,0.095,0.759,0.121c0.254,0.025,0.745,0.082,1.09,0.127C-155.509-44.367-152.917-44.338-150.86-44.475
		L-150.86-44.475z M-154.878-45.287c0.05-0.066,0.05-5.615-0.001-6.754l-0.012-0.265l-0.955-0.083
		c-0.525-0.045-0.98-0.057-1.01-0.026c-0.138,0.138-0.32,4.258-0.263,5.935l0.035,1.002l0.502,0.043
		c0.276,0.022,0.74,0.081,1.03,0.13c0.291,0.05,0.547,0.092,0.57,0.095C-154.958-45.207-154.912-45.241-154.878-45.287
		L-154.878-45.287z M-152.235-45.262c0.059-0.007,0.071-0.804,0.051-3.328c-0.015-1.826-0.051-3.404-0.08-3.508l-0.054-0.188
		l-1.064-0.019c-0.585-0.01-1.09,0-1.121,0.023c-0.073,0.053-0.096,6.967-0.023,7.012
		C-154.481-45.242-152.493-45.236-152.235-45.262L-152.235-45.262z M-149.84-45.367c0.09-0.056,0.089-2.749-0.001-4.693
		c-0.087-1.889-0.119-2.425-0.148-2.454c-0.014-0.013-0.26,0.005-0.547,0.04c-0.287,0.035-0.717,0.081-0.955,0.103l-0.432,0.04
		l0.002,3.54l0.003,3.54l1.005-0.036C-150.36-45.308-149.878-45.344-149.84-45.367L-149.84-45.367z M-148.482-45.541
		c0.29-0.041,0.569-0.088,0.62-0.102c0.076-0.021,0.085-0.355,0.057-1.991c-0.033-1.903-0.064-2.284-0.348-4.125
		c-0.054-0.353-0.098-0.717-0.098-0.81c0-0.195-0.014-0.196-0.859-0.078l-0.562,0.078l0.015,0.692
		c0.008,0.381,0.049,1.197,0.093,1.815c0.043,0.618,0.085,1.911,0.093,2.874c0.009,0.963,0.02,1.761,0.023,1.774
		c0.004,0.014,0.104,0.008,0.223-0.014S-148.772-45.498-148.482-45.541L-148.482-45.541z M-157.389-47.715
		c0.006-1.181,0.033-2.607,0.061-3.17c0.027-0.563,0.052-1.158,0.055-1.321l0.005-0.297l-0.595-0.054
		c-0.327-0.03-0.694-0.098-0.816-0.151c-0.353-0.154-0.455-0.081-0.497,0.356c-0.07,0.722-0.207,4.282-0.207,5.384
		c0,0.898,0.019,1.12,0.096,1.168c0.053,0.033,0.32,0.08,0.594,0.105c0.274,0.025,0.633,0.068,0.796,0.096
		C-157.357-45.508-157.402-45.322-157.389-47.715L-157.389-47.715z M-158.438-48.887c-0.026-0.895-0.002-1.065,0.14-0.978
		c0.046,0.029,0.072,0.374,0.072,0.965c0,0.746-0.018,0.921-0.093,0.921C-158.392-47.979-158.417-48.164-158.438-48.887z
		 M-159.019-48.668c0-0.057,0.03-0.103,0.066-0.103c0.036,0,0.066,0.028,0.066,0.062s-0.03,0.081-0.066,0.103
		C-158.989-48.584-159.019-48.612-159.019-48.668z M-158.953-49.263c0-0.057,0.03-0.103,0.066-0.103
		c0.037,0,0.066,0.028,0.066,0.062s-0.029,0.08-0.066,0.103C-158.923-49.179-158.953-49.206-158.953-49.263z M-158.474-50.219
		c-0.069-0.271-0.017-0.451,0.108-0.374c0.086,0.053,0.101,0.632,0.016,0.632C-158.382-49.961-158.438-50.077-158.474-50.219
		L-158.474-50.219z M-146.707-45.921c0.373-0.107,0.678-0.233,0.712-0.294c0.083-0.148,0.074-2.76-0.012-3.355
		c-0.039-0.269-0.098-0.742-0.131-1.05c-0.032-0.309-0.108-0.859-0.168-1.222c-0.061-0.363-0.125-0.774-0.143-0.914
		c-0.02-0.139-0.076-0.269-0.127-0.288c-0.052-0.02-0.285,0.012-0.519,0.071s-0.514,0.107-0.622,0.107
		c-0.24,0-0.293,0.131-0.197,0.495c0.064,0.247,0.145,0.976,0.32,2.916c0.04,0.441,0.07,1.437,0.068,2.213
		c-0.003,0.777-0.004,1.434-0.002,1.461C-147.522-45.701-147.394-45.724-146.707-45.921L-146.707-45.921z M-146.823-47.222
		c-0.022-0.06-0.023-0.136-0.002-0.17c0.021-0.035,0.037-0.566,0.037-1.182c0-0.996,0.04-1.292,0.16-1.172
		c0.051,0.052,0.076,1.456,0.035,2.027C-146.631-47.19-146.729-46.977-146.823-47.222L-146.823-47.222z M-159.637-47.645
		c0.014-0.961,0.058-2.374,0.099-3.138c0.117-2.2,0.12-2.117-0.075-2.117c-0.138,0-0.162,0.028-0.146,0.166
		c0.039,0.317,0.013,1.091-0.042,1.288c-0.055,0.195-0.057,0.193-0.102-0.104c-0.025-0.167-0.029-0.347-0.008-0.402
		s0.004-0.231-0.037-0.392c-0.041-0.161-0.079-0.38-0.085-0.489c-0.01-0.17-0.042-0.203-0.242-0.238
		c-0.127-0.023-0.311-0.063-0.408-0.09c-0.239-0.065-0.332,0.119-0.306,0.609c0.022,0.433,0.12,0.461,0.218,0.062
		c0.036-0.147,0.103-0.281,0.148-0.295c0.103-0.034,0.11,0.195,0.01,0.295c-0.041,0.041-0.094,0.172-0.119,0.294
		c-0.032,0.16-0.081,0.221-0.174,0.221c-0.148,0-0.14-0.046-0.36,2.048c-0.099,0.947-0.133,1.648-0.119,2.475l0.019,1.154
		l0.364,0.114c0.2,0.062,0.456,0.116,0.568,0.118l0.205,0.004l0.042-0.446c0.023-0.245,0.043-0.565,0.043-0.71
		c0.002-0.318,0.092-0.496,0.198-0.39c0.052,0.052,0.05,0.277-0.005,0.807c-0.085,0.816-0.063,0.956,0.145,0.925
		C-159.664-45.898-159.662-45.921-159.637-47.645L-159.637-47.645z M-161.023-47.56c-0.024-0.024-0.044-0.494-0.044-1.044
		c0-0.772,0.022-1.03,0.096-1.128c0.085-0.114,0.096-0.015,0.091,0.896c-0.002,0.563,0.002,1.054,0.011,1.09
		C-160.824-47.558-160.913-47.451-161.023-47.56L-161.023-47.56z M-160.235-49.092c-0.022-0.037-0.009-0.087,0.03-0.111
		c0.102-0.063,0.167,0.023,0.082,0.108C-160.17-49.048-160.207-49.047-160.235-49.092z M-160.211-49.416
		c-0.039-0.804-0.018-1.994,0.035-1.977c0.037,0.012,0.087,0.153,0.111,0.314c0.057,0.373,0.067,1.471,0.015,1.608
		C-160.091-49.365-160.206-49.325-160.211-49.416L-160.211-49.416z M-160.974-50.062c-0.051-0.203,0.076-0.384,0.166-0.238
		c0.061,0.099,0.021,0.321-0.066,0.375C-160.906-49.905-160.95-49.967-160.974-50.062z M-160.842-50.779
		c-0.043-0.112,0.015-0.239,0.109-0.239c0.083,0,0.08,0.246-0.004,0.298C-160.774-50.698-160.821-50.724-160.842-50.779z
		 M-145.36-46.256c0.063-0.033,0.346-0.167,0.627-0.297c0.281-0.13,0.514-0.274,0.516-0.319c0.043-1.038-0.112-3.598-0.295-4.844
		c-0.053-0.36-0.133-0.933-0.178-1.272c-0.051-0.389-0.113-0.63-0.168-0.651c-0.048-0.019-0.214,0.012-0.369,0.068
		s-0.4,0.145-0.547,0.197c-0.354,0.127-0.469,0.355-0.369,0.728c0.041,0.151,0.104,0.482,0.142,0.737s0.098,0.656,0.134,0.892
		c0.037,0.236,0.05,0.497,0.029,0.579c-0.02,0.082,0.008,0.236,0.063,0.343c0.081,0.157,0.104,0.544,0.117,2.047
		C-145.64-46.111-145.639-46.107-145.36-46.256z M-144.789-48.467c-0.043-0.112,0.015-0.238,0.109-0.238
		c0.083,0,0.079,0.246-0.005,0.297C-144.72-48.386-144.768-48.412-144.789-48.467z M-145.311-49.179
		c-0.053-0.426-0.024-0.749,0.066-0.749c0.036,0,0.074,0.22,0.086,0.489C-145.135-48.848-145.247-48.659-145.311-49.179
		L-145.311-49.179z M-144.815-49.141c0-0.207,0.154-0.184,0.186,0.027c0.014,0.095-0.014,0.144-0.082,0.144
		S-144.815-49.03-144.815-49.141z M-144.844-49.581c-0.145-0.693-0.233-1.465-0.175-1.524c0.046-0.045,0.077-0.037,0.1,0.026
		c0.065,0.19,0.274,1.499,0.25,1.571C-144.712-49.382-144.811-49.424-144.844-49.581z M-145.344-50.258
		c0-0.091,0.03-0.165,0.066-0.165s0.066,0.074,0.066,0.165s-0.03,0.166-0.066,0.166S-145.344-50.167-145.344-50.258z
		 M-145.102-51.326c-0.08-0.08-0.045-0.286,0.049-0.286c0.104,0,0.166,0.125,0.123,0.248
		C-144.962-51.274-145.034-51.258-145.102-51.326z M-161.647-47.683c0.073-1.836,0.114-2.445,0.224-3.302
		c0.056-0.436,0.126-1.12,0.155-1.52c0.059-0.818,0.047-0.847-0.383-0.916c-0.138-0.022-0.306-0.1-0.372-0.173
		s-0.19-0.133-0.275-0.133c-0.131,0-0.155,0.034-0.155,0.215c0,0.118-0.049,0.467-0.108,0.776c-0.059,0.309-0.132,0.754-0.161,0.991
		c-0.03,0.236-0.088,0.646-0.13,0.911c-0.056,0.355-0.056,0.505-0.001,0.57c0.089,0.107,0.025,0.619-0.096,0.765
		c-0.045,0.055-0.119,0.213-0.163,0.352c-0.073,0.228-0.068,0.267,0.056,0.398c0.13,0.139,0.132,0.155,0.028,0.342
		c-0.078,0.142-0.108,0.357-0.105,0.776c0.003,0.691,0.052,0.767,0.599,0.938c0.208,0.065,0.438,0.142,0.511,0.172
		C-161.706-46.391-161.697-46.418-161.647-47.683L-161.647-47.683z M-162.75-47.053c-0.067-0.108-0.12-0.712-0.074-0.834
		c0.075-0.195,0.155-0.017,0.203,0.453c0.03,0.289,0.022,0.446-0.021,0.446C-162.68-46.988-162.728-47.017-162.75-47.053
		L-162.75-47.053z M-162.371-48.062c-0.089-0.112-0.163-0.825-0.09-0.87c0.104-0.064,0.188,0.117,0.235,0.501
		C-162.182-48.059-162.244-47.901-162.371-48.062z M-161.931-48.954c-0.029-0.604-0.016-0.913,0.039-0.939
		c0.092-0.043,0.173,0.693,0.098,0.891C-161.867-48.81-161.923-48.79-161.931-48.954L-161.931-48.954z M-162.498-49.603
		c-0.058-0.151,0.04-1.415,0.121-1.566c0.061-0.114,0.08-0.117,0.168-0.029c0.081,0.081,0.084,0.127,0.019,0.249
		c-0.077,0.144-0.1,0.352-0.121,1.105C-162.322-49.51-162.416-49.388-162.498-49.603z M-162.292-51.794
		c0.025-0.1,0.088-0.249,0.142-0.331c0.143-0.22,0.357-0.091,0.357,0.214c0,0.229-0.096,0.367-0.151,0.217
		c-0.024-0.066-0.048-0.066-0.118,0C-162.223-51.543-162.341-51.594-162.292-51.794L-162.292-51.794z M-143.446-47.346
		c0.32-0.321,0.354-0.38,0.322-0.578c-0.02-0.121-0.053-0.711-0.076-1.311c-0.076-2.019-0.508-4.861-0.75-4.941
		c-0.044-0.015-0.131,0.018-0.191,0.072c-0.062,0.055-0.172,0.11-0.244,0.124c-0.17,0.032-0.167,0.11,0.085,1.904
		c0.286,2.033,0.353,2.805,0.344,3.964c-0.005,0.563-0.007,1.046-0.004,1.074C-143.95-46.913-143.775-47.017-143.446-47.346
		L-143.446-47.346z M-163.312-47.17c0-0.027-0.028-0.147-0.062-0.266c-0.131-0.457,0.041-2.372,0.404-4.507
		c0.349-2.046,0.337-1.912,0.171-2.051c-0.188-0.157-0.362-0.163-0.405-0.013c-0.118,0.406-0.196,0.756-0.24,1.074
		c-0.028,0.2-0.127,0.904-0.222,1.565c-0.095,0.661-0.201,1.791-0.236,2.51l-0.064,1.308l0.227,0.215
		C-163.529-47.136-163.312-47.053-163.312-47.17L-163.312-47.17z M-151.024-52.704c0.6-0.056,1.268-0.132,1.486-0.17
		c0.218-0.037,0.634-0.093,0.925-0.124c0.664-0.07,2.11-0.415,2.675-0.639c0.236-0.093,0.611-0.236,0.834-0.317
		c0.449-0.165,0.957-0.49,1.112-0.711c0.062-0.087,0.103-0.287,0.103-0.495c0-0.297-0.019-0.349-0.125-0.349
		c-0.074,0-0.155,0.077-0.203,0.192c-0.117,0.282-0.314,0.441-0.91,0.729c-0.826,0.399-1.412,0.591-2.561,0.839
		c-1.482,0.32-1.65,0.352-2.246,0.421c-1.402,0.164-1.916,0.192-3.634,0.199c-2.129,0.008-3.012-0.058-4.69-0.348
		c-0.254-0.044-0.492-0.071-0.528-0.06s-0.17-0.011-0.297-0.049c-0.127-0.039-0.559-0.148-0.958-0.243
		c-0.399-0.095-1.098-0.31-1.552-0.476c-0.741-0.272-0.862-0.339-1.181-0.658c-0.206-0.205-0.394-0.34-0.446-0.32
		c-0.169,0.065-0.07,0.832,0.107,0.832c0.038,0,0.184,0.072,0.323,0.16c0.139,0.088,0.503,0.255,0.808,0.37
		c0.305,0.116,0.658,0.251,0.786,0.301c0.127,0.05,0.38,0.125,0.562,0.166s0.538,0.135,0.792,0.208
		c0.466,0.135,0.762,0.185,1.85,0.315c0.327,0.039,0.668,0.098,0.759,0.13s0.625,0.077,1.186,0.099
		c0.562,0.021,1.034,0.052,1.049,0.068C-154.926-52.562-151.999-52.614-151.024-52.704L-151.024-52.704z M-154.759-53.47
		c0.02-0.02,0.051-0.762,0.068-1.649s0.049-1.838,0.071-2.114l0.041-0.501l-0.75-0.049c-0.412-0.027-0.853-0.054-0.98-0.06
		l-0.231-0.011l-0.078,0.628c-0.042,0.345-0.11,1.251-0.149,2.015s-0.079,1.447-0.087,1.52c-0.015,0.121,0.041,0.138,0.645,0.198
		C-155.492-53.422-154.818-53.411-154.759-53.47L-154.759-53.47z M-153.047-53.46l0.785,0l-0.043-0.281
		c-0.023-0.154-0.07-0.652-0.106-1.106c-0.083-1.064-0.272-2.799-0.308-2.838c-0.016-0.017-0.365-0.038-0.776-0.047l-0.748-0.017
		l-0.051,0.444c-0.115,1.004-0.167,3.71-0.072,3.836c0.045,0.06,0.143,0.076,0.301,0.05
		C-153.938-53.442-153.479-53.46-153.047-53.46L-153.047-53.46z M-150.717-53.551c0.374-0.017,0.58-0.137,0.518-0.301
		c-0.023-0.058-0.127-0.804-0.232-1.658c-0.106-0.854-0.246-1.716-0.311-1.916l-0.117-0.363l-0.727,0.023
		c-0.399,0.013-0.748,0.043-0.773,0.068c-0.027,0.024-0.004,0.445,0.051,0.935s0.127,1.292,0.161,1.782
		c0.034,0.49,0.082,1.036,0.104,1.212l0.043,0.321l0.471-0.044C-151.27-53.516-150.905-53.542-150.717-53.551L-150.717-53.551z
		 M-157.172-53.687c0.049-0.06,0.1-0.568,0.137-1.371c0.033-0.702,0.073-1.574,0.09-1.937s0.04-0.72,0.052-0.792
		c0.02-0.119-0.028-0.136-0.488-0.179c-0.281-0.025-0.573-0.08-0.648-0.121c-0.228-0.122-0.3,0.018-0.389,0.744
		c-0.045,0.373-0.122,0.856-0.17,1.074c-0.048,0.218-0.107,0.708-0.131,1.09c-0.024,0.381-0.054,0.834-0.065,1.005
		c-0.023,0.357-0.037,0.349,0.639,0.415c0.244,0.024,0.526,0.068,0.628,0.099C-157.26-53.582-157.259-53.582-157.172-53.687
		L-157.172-53.687z M-158.364-54.793c-0.028-0.347,0.025-1.521,0.079-1.723c0.116-0.438,0.211-0.295,0.154,0.231
		c-0.029,0.263-0.054,0.714-0.057,1.001c-0.002,0.357-0.03,0.532-0.086,0.551C-158.321-54.718-158.361-54.745-158.364-54.793
		L-158.364-54.793z M-158.123-57.089c-0.046-0.075,0.025-0.27,0.099-0.27c0.089,0,0.133,0.112,0.089,0.225
		C-157.98-57.017-158.066-56.996-158.123-57.089z M-149.026-53.763c0.273-0.025,0.529-0.065,0.568-0.088
		c0.07-0.044-0.037-0.898-0.193-1.525c-0.041-0.164-0.098-0.461-0.126-0.661c-0.103-0.723-0.432-2.046-0.519-2.08
		c-0.048-0.019-0.141-0.006-0.205,0.029s-0.316,0.083-0.559,0.108s-0.453,0.065-0.469,0.091c-0.016,0.025,0.012,0.177,0.06,0.337
		s0.108,0.544,0.134,0.854c0.025,0.309,0.086,0.785,0.135,1.057s0.123,0.792,0.166,1.156c0.1,0.86,0.096,0.85,0.321,0.805
		C-149.61-53.701-149.301-53.738-149.026-53.763z M-159.092-54.072c0.03-0.082,0.075-0.429,0.101-0.771
		c0.058-0.792,0.274-2.521,0.367-2.934c0.039-0.174,0.056-0.342,0.037-0.373c-0.019-0.03-0.19-0.077-0.381-0.103
		c-0.19-0.026-0.405-0.088-0.477-0.138c-0.231-0.161-0.348-0.114-0.386,0.157c-0.019,0.136-0.099,0.471-0.177,0.743
		c-0.078,0.272-0.169,0.644-0.202,0.825s-0.089,0.404-0.125,0.496c-0.053,0.135-0.233,1.27-0.288,1.815
		c-0.011,0.11,0.053,0.144,0.417,0.216c0.236,0.047,0.533,0.111,0.66,0.142C-159.185-53.908-159.15-53.914-159.092-54.072
		L-159.092-54.072z M-160.087-54.859c-0.025-0.747,0.11-1.893,0.239-2.021c0.099-0.099,0.114,0.091,0.044,0.56
		c-0.042,0.283-0.084,0.794-0.092,1.137c-0.011,0.423-0.042,0.631-0.097,0.65C-160.051-54.516-160.079-54.613-160.087-54.859z
		 M-159.668-57.665c0.013-0.068,0.053-0.116,0.089-0.107c0.096,0.024,0.079,0.166-0.023,0.201
		C-159.66-57.552-159.683-57.585-159.668-57.665L-159.668-57.665z M-147.321-54.066c0.41-0.087,0.683-0.179,0.705-0.236
		c0.033-0.088-0.094-0.772-0.385-2.066c-0.068-0.309-0.228-0.888-0.352-1.288l-0.227-0.727l-0.279,0.022
		c-0.154,0.012-0.352,0.049-0.439,0.083s-0.246,0.061-0.353,0.061c-0.124,0-0.194,0.034-0.194,0.094
		c0,0.239,0.147,1.158,0.229,1.425c0.05,0.164,0.109,0.475,0.131,0.691c0.023,0.224,0.09,0.446,0.152,0.516
		c0.09,0.099,0.096,0.146,0.031,0.249c-0.055,0.088-0.059,0.177-0.014,0.298c0.036,0.094,0.065,0.305,0.065,0.469
		c0,0.305,0.089,0.553,0.198,0.553C-148.018-53.924-147.689-53.988-147.321-54.066z M-147.743-55.883
		c-0.068-0.068-0.053-0.34,0.021-0.386c0.076-0.047,0.219,0.278,0.162,0.369C-147.603-55.829-147.681-55.822-147.743-55.883z
		 M-146.036-54.452c0.108-0.072,0.249-0.131,0.312-0.132c0.062,0,0.209-0.085,0.324-0.188l0.211-0.188l-0.104-0.489
		c-0.254-1.201-0.873-3.22-1.036-3.384c-0.047-0.047-0.188-0.029-0.45,0.056c-0.557,0.181-0.586,0.218-0.461,0.604
		c0.231,0.713,0.453,1.544,0.576,2.156c0.071,0.356,0.16,0.704,0.196,0.772s0.067,0.285,0.067,0.481
		C-146.399-54.277-146.356-54.24-146.036-54.452L-146.036-54.452z M-146.229-56.649c-0.186-0.654-0.217-0.908-0.112-0.908
		c0.122,0,0.198,0.181,0.243,0.579c0.033,0.296,0.024,0.413-0.031,0.413C-146.171-56.566-146.216-56.603-146.229-56.649z
		 M-146.419-57.672c-0.067-0.116-0.114-0.546-0.061-0.546c0.067,0,0.212,0.292,0.212,0.429
		C-146.267-57.682-146.377-57.597-146.419-57.672z M-160.867-54.416c0-0.216,0.356-2.177,0.426-2.348
		c0.052-0.127,0.128-0.484,0.169-0.793c0.041-0.309,0.091-0.672,0.111-0.806c0.035-0.234,0.025-0.25-0.22-0.354
		c-0.141-0.06-0.387-0.167-0.547-0.238c-0.302-0.134-0.396-0.1-0.404,0.144c-0.001,0.055-0.076,0.248-0.166,0.43
		c-0.103,0.209-0.163,0.445-0.163,0.643c0,0.298-0.092,0.789-0.2,1.075c-0.085,0.225-0.347,1.442-0.354,1.649
		c-0.007,0.186,0.02,0.206,0.554,0.409C-161.139-54.408-160.867-54.343-160.867-54.416z M-161.04-55.443
		c0.109-1.075,0.178-2.205,0.16-2.643c-0.017-0.405-0.002-0.496,0.079-0.496c0.165,0,0.163,1.083-0.004,2.312
		c-0.079,0.582-0.172,1.087-0.208,1.123C-161.054-55.103-161.064-55.207-161.04-55.443z M-161.501-55.88
		c0.024-0.323,0.053-0.884,0.062-1.247c0.025-0.938,0.028-0.958,0.152-0.958c0.1,0,0.105,0.102,0.063,1.106
		c-0.053,1.262-0.102,1.611-0.231,1.655C-161.529-55.299-161.537-55.397-161.501-55.88L-161.501-55.88z M-144.628-55.257
		c0.264-0.313,0.355-0.676,0.244-0.972c-0.049-0.131-0.106-0.384-0.128-0.562c-0.036-0.305-0.411-1.553-0.597-1.988
		c-0.047-0.109-0.105-0.295-0.132-0.412c-0.064-0.294-0.121-0.31-0.412-0.112c-0.399,0.271-0.403,0.147,0.044,1.516
		c0.25,0.766,0.596,2.187,0.596,2.45C-145.012-54.981-144.884-54.954-144.628-55.257z M-162.493-55.195
		c0.042-0.16,0.447-1.87,0.505-2.13c0.032-0.146,0.078-0.398,0.102-0.562c0.024-0.164,0.114-0.487,0.201-0.718
		c0.184-0.491,0.199-0.724,0.052-0.78c-0.142-0.055-0.158-0.021-0.503,1.023c-0.293,0.888-0.348,1.067-0.542,1.796
		c-0.291,1.096-0.291,1.09-0.093,1.3C-162.611-55.094-162.525-55.073-162.493-55.195L-162.493-55.195z M-151.849-58.053
		c0.399-0.017,0.96-0.076,1.244-0.131c0.285-0.055,0.671-0.1,0.858-0.1c0.386,0,1.357-0.225,2.291-0.529
		c0.636-0.208,1.936-0.793,1.996-0.899c0.062-0.111-0.031-0.564-0.125-0.6c-0.052-0.02-0.145,0.013-0.207,0.073
		c-0.48,0.466-0.953,0.688-2.061,0.97c-0.31,0.078-0.613,0.169-0.676,0.202c-0.131,0.069-1.375,0.248-2.297,0.33
		c-0.346,0.031-1.55,0.073-2.676,0.094c-2.094,0.039-2.394,0.021-4.492-0.262c-0.781-0.105-2.159-0.48-2.686-0.73
		c-0.206-0.098-0.495-0.282-0.644-0.409c-0.298-0.255-0.403-0.244-0.403,0.042c0,0.252,0.32,0.513,1.097,0.894
		c1.027,0.503,2.228,0.758,4.816,1.02C-154.658-57.972-153.866-57.965-151.849-58.053L-151.849-58.053z M-150.759-59.038
		c0.526-0.059,1.018-0.126,1.09-0.149c0.073-0.023,0.311-0.063,0.528-0.089c0.752-0.091,2.596-0.648,2.746-0.829
		c0.262-0.316-1.525-0.817-3.386-0.95c-0.825-0.059-1.91-0.069-4.414-0.042c-0.943,0.01-2.112,0.104-3.072,0.247
		c-0.472,0.07-1.067,0.155-1.321,0.188c-0.654,0.085-1.434,0.244-1.818,0.369c-0.434,0.142-0.438,0.293-0.015,0.475
		c0.336,0.145,1.814,0.532,2.196,0.576c0.127,0.015,0.514,0.072,0.859,0.127c0.345,0.056,0.851,0.129,1.123,0.164
		C-155.481-58.854-151.88-58.912-150.759-59.038L-150.759-59.038z M-160.643-60.498c0.357-0.149,1.593-0.402,2.715-0.555
		c2.958-0.404,3.023-0.409,5.087-0.408c1.182,0,2.074,0.029,2.213,0.07c0.127,0.038,0.438,0.07,0.693,0.07
		c1.053,0.003,2.969,0.396,3.448,0.708c0.079,0.052,0.214,0.084,0.297,0.073c0.459-0.065-0.21-0.574-0.981-0.748
		c-0.284-0.064-0.682-0.155-0.881-0.203c-0.199-0.048-0.721-0.12-1.156-0.161s-1.03-0.101-1.321-0.135
		c-3.036-0.352-6.225-0.145-9.381,0.606c-0.762,0.182-0.883,0.23-1.076,0.43C-161.312-60.413-161.143-60.289-160.643-60.498
		L-160.643-60.498z"/>
	
		<linearGradient id="rect3856-4-8_1_" gradientUnits="userSpaceOnUse" x1="3956.4465" y1="-6085.7036" x2="4190.6323" y2="-6085.7036" gradientTransform="matrix(0.0661 0 0 -0.0661 -422.8461 -463.2233)">
		<stop  offset="0" style="stop-color:#36290E;stop-opacity:0.5882"/>
		<stop  offset="0.5" style="stop-color:#EFDFBE;stop-opacity:0"/>
		<stop  offset="1" style="stop-color:#36280E;stop-opacity:0.5882"/>
	</linearGradient>
	<path id="rect3856-4-8" sodipodi:nodetypes="ccccc" inkscape:connector-curvature="0" fill="url(#rect3856-4-8_1_)" d="
		M-160.964-60.207c3.404-0.685,11.883-1.239,14.52-0.108c0.434-0.1,0.514,0.159,0.326-0.652c-3.79-1.376-10.18-1.78-15.026-0.072
		C-161.878-60.499-161.188-60.238-160.964-60.207L-160.964-60.207z"/>
	
		<linearGradient id="rect3022-7_1_" gradientUnits="userSpaceOnUse" x1="3917.4202" y1="-6341.4355" x2="4244.1465" y2="-6341.4355" gradientTransform="matrix(0.0661 0 0 -0.0661 -423.1362 -464.5983)">
		<stop  offset="0" style="stop-color:#36290E;stop-opacity:0.5882"/>
		<stop  offset="0.5" style="stop-color:#EFDFBE;stop-opacity:0"/>
		<stop  offset="1" style="stop-color:#36280E;stop-opacity:0.5882"/>
	</linearGradient>
	<path id="rect3022-7" sodipodi:nodetypes="ccccccccccccccccc" inkscape:connector-curvature="0" fill="url(#rect3022-7_1_)" d="
		M-161.422-60.879c1.44,3.182,13.11,2.394,15.855,0.398c1.685,4.253,2.632,8.479,2.562,12.786c0.261,0.26,0.419,0.742-0.063,1.563
		c-0.152,2.415-0.498,4.869-1.142,7.54c0.308,0.071,0.229,0.691-0.313,1.271c-0.461,1.75-1.018,3.24-1.656,5.008
		c-3.576,2.83-12.25,2.284-15.387-0.686c-0.242-1.699-0.748-3.088-1.183-4.717c-0.46-0.487-0.498-0.962-0.152-0.977
		c-0.658-2.482-1.284-4.672-1.244-8.093c-0.252-0.489-0.27-0.661-0.005-0.77c0.041-2.072,0.238-4.031,0.89-6.842
		c-0.266-0.565-0.105-0.987,0.182-0.993c0.358-1.501,0.75-2.587,1.327-4.338c-0.154-0.334-0.1-0.614,0.153-0.622
		C-161.519-60.594-161.508-60.619-161.422-60.879L-161.422-60.879z"/>
</g>
<line fill="#FF5F4B" stroke="#D90014" stroke-miterlimit="10" x1="6.187" y1="0.142" x2="25.666" y2="31.084"/>
<line fill="#FF5F4B" stroke="#D90014" stroke-miterlimit="10" x1="6.187" y1="31.084" x2="26.772" y2="0.5"/>
</svg>
